<?xml version="1.0" encoding="UTF-8"?>
<svg id="Layer_2" data-name="Layer 2" xmlns="http://www.w3.org/2000/svg" viewBox="0 0 218.59 220.79">
  <defs>
    <style>
      .cls-1 {
        fill: none;
        stroke: #231f20;
        stroke-miterlimit: 10;
      }
    </style>
  </defs>
  <g id="Layer_1-2" data-name="Layer 1">
    <path class="cls-1" d="m212.76,123.65s1.41-.15,3.33-.52c1.93-.37,1.85-1.78,1.85-1.78l.15-92.48-1.48-1.59v-14.3c0-1.56-2.07-2.52-2.07-2.52l-8.93-.19-.37.37-1.07.07-.93-1.48-4.78-.11-1.22,1.48s-29.26-.04-33.37-.04-5.37-4.63-5.37-4.63v-2.67c0-2.52-2.19-2.78-2.19-2.78H63.06c-2.93,0-2.93,2.26-2.93,2.26l-.11,2.11c-.11,2.11-.48,2.93-1.52,3.96-1.04,1.04-2.96,1.41-2.96,1.41H23.02l-.26.37h-1.11l-.96-1.44h-5.19v.96l-.81.41h-1.04l-.33-.41s-6.26.19-8.52.19-2.78,2.3-2.78,2.3l-.24,37.37,1.09,1.48.19,2.11-1.04.96-.07,20.19,1.11,1.37-.19,2.22-.81.7-.19,31.26-1.26,1.41-.11,40.26,1.48,2.63v27.37h.41v1.11l-.98.7-.65,5.07,1,.63.3,1v20.04c.78,8,8.74,9.15,8.74,9.15,0,0,88.93-.96,89.41-.96s.3-.04.41-.89c.11-.85.59-1.81,1.7-3.78,1.11-1.96,2.59-2.44,2.59-2.44,0,0,8.74-.04,9.11,0s1.93,1.11,3.07,2.78c1.15,1.67,1.04,3.93,1.04,3.93l1.89,1.78s76,.52,86.33,0c10.33-.52,10.3-9.78,10.3-9.78,0,0,.11-8.96.19-10.48.07-1.52.74-1.63.74-1.63v-6.7l-.56-.96.07-.56-1-.89s-2.7-.15-3.41-.56-1-2.19-1-2.19c0,0,.07-60.96.15-61.81.07-.85.93-.85.93-.85ZM12.33,209.94c-3.09,0-5.59-2.5-5.59-5.59s2.5-5.59,5.59-5.59,5.59,2.5,5.59,5.59-2.5,5.59-5.59,5.59Zm3.37-169.56c-3.09,0-5.59-2.5-5.59-5.59s2.5-5.59,5.59-5.59,5.59,2.5,5.59,5.59-2.5,5.59-5.59,5.59ZM109.3,13.2c3.09,0,5.59,2.5,5.59,5.59s-2.5,5.59-5.59,5.59-5.59-2.5-5.59-5.59,2.5-5.59,5.59-5.59Zm0,160.67c-13.32,0-24.11-10.79-24.11-24.11s10.79-24.11,24.11-24.11,24.11,10.79,24.11,24.11-10.79,24.11-24.11,24.11ZM197.48,34.8c0-3.09,2.5-5.59,5.59-5.59s5.59,2.5,5.59,5.59-2.5,5.59-5.59,5.59-5.59-2.5-5.59-5.59Zm14.81,169.56c0,3.09-2.5,5.59-5.59,5.59s-5.59-2.5-5.59-5.59,2.5-5.59,5.59-5.59,5.59,2.5,5.59,5.59Z"/>
  </g>
</svg>